<?xml version="1.0" encoding="UTF-8" standalone="no"?>
<!DOCTYPE svg PUBLIC "-//W3C//DTD SVG 1.1//EN" "http://www.w3.org/Graphics/SVG/1.1/DTD/svg11.dtd">
<svg width="100%" height="100%" viewBox="0 0 900 122" version="1.1" xmlns="http://www.w3.org/2000/svg" xmlns:xlink="http://www.w3.org/1999/xlink" xml:space="preserve" xmlns:serif="http://www.serif.com/" style="fill-rule:evenodd;clip-rule:evenodd;stroke-linejoin:round;stroke-miterlimit:2;">
    <g transform="matrix(1.34523,0,0,1.34523,22.8334,1.45574)">
        <path d="M375.741,2.108L375.741,18.351L337.31,18.351C320.59,18.351 313.409,24.354 312.874,35.168L375.741,35.168L375.741,51.411L312.856,51.411C313.239,62.466 320.394,68.61 337.31,68.61L375.741,68.61L375.741,84.854L335.165,84.854C308.015,84.854 293.293,72.241 293.293,43.385C293.293,14.529 308.015,2.108 335.165,2.108L375.741,2.108ZM129.63,38.99L129.63,17.969L163.181,17.969C171.02,17.969 176.182,21.6 176.182,28.48C176.182,35.358 171.021,38.989 163.183,38.99L129.63,38.99ZM194.254,27.524C194.254,11.472 183.929,2.108 164.236,2.108L111.558,2.108L111.558,84.854L129.63,84.854L129.63,54.851L144.253,54.851C151.518,54.851 154.96,55.425 158.401,60.775L174.27,84.854L195.592,84.854L173.785,52.429C186.655,49.888 194.254,41.821 194.254,27.524ZM36.086,44.914L45.504,22.747C47.033,19.307 48.372,18.542 50.284,18.542C50.756,18.542 51.194,18.59 51.608,18.712C52.869,19.085 53.912,20.157 55.063,22.746L64.48,44.914L36.086,44.914ZM56.14,1.692C54.377,1.217 52.434,0.962 50.283,0.962C38.812,0.962 33.076,8.415 29.252,17.396L0,84.853L19.119,84.853L29.267,60.966L71.3,60.966L81.447,84.853L100.568,84.853L71.315,17.396C68.052,9.943 63.781,3.752 56.14,1.692ZM292.464,2.108L260.877,43.481L292.464,84.854L271.149,84.854L250.118,57.718C246.294,52.749 243.617,51.603 236.734,51.603L227.075,51.603L227.075,84.854L209.202,84.854L209.202,2.108L227.075,2.108L227.075,35.359L236.734,35.359C243.617,35.359 246.294,34.212 250.118,29.244L271.149,2.108L292.464,2.108ZM570.526,44.914L579.895,22.747C581.425,19.307 582.763,18.542 584.675,18.542C585.864,18.542 586.831,18.839 587.76,19.889C587.885,20.031 588.01,20.19 588.134,20.361C588.345,20.649 588.555,20.981 588.766,21.36C588.853,21.515 588.94,21.679 589.027,21.851C589.169,22.129 589.311,22.422 589.455,22.747L598.872,44.914L570.526,44.914ZM615.84,84.854L634.96,84.854L605.707,17.396C605.067,15.934 604.376,14.528 603.634,13.185C603.39,12.744 603.139,12.311 602.882,11.886C602.146,10.67 601.355,9.522 600.493,8.46C600.395,8.339 600.301,8.215 600.201,8.096C596.555,3.769 591.687,0.961 584.675,0.961C573.395,0.961 567.659,8.223 563.644,17.396L542.803,65.362C542.038,67.273 541.083,68.419 539.362,68.419C537.641,68.419 536.494,67.464 535.92,65.362L522.344,18.351C520.922,13.335 518.55,9.379 515.544,6.516C514.315,5.345 512.976,4.364 511.557,3.561C511.49,3.523 511.426,3.477 511.359,3.44C508.37,1.794 505.018,0.961 501.505,0.961C492.136,0.961 485.062,6.694 481.429,18.351L467.472,63.833C466.898,65.935 465.369,66.89 463.839,66.89C463.266,66.89 462.692,66.756 462.169,66.477C461.297,66.013 460.565,65.147 460.207,63.833L446.249,18.351C444.66,13.251 442.449,9.285 439.663,6.437C439.611,6.383 439.554,6.338 439.501,6.285C438.975,5.759 438.423,5.281 437.857,4.833C434.597,2.256 430.688,0.961 426.174,0.961C416.614,0.961 408.775,6.885 405.333,18.351L385.449,84.854L404.951,84.854L422.541,22.555C423.115,20.453 424.644,19.498 426.174,19.498C426.747,19.498 427.321,19.632 427.844,19.911C428.716,20.376 429.448,21.241 429.806,22.555L443.764,68.61C447.396,80.268 454.853,86 463.839,86C472.826,86 480.282,80.268 483.915,68.61L497.872,22.555C498.446,20.453 499.975,19.498 501.505,19.498C502.079,19.498 502.652,19.632 503.175,19.911C504.047,20.376 504.779,21.241 505.138,22.555L517.565,66.89C519.473,73.564 522.047,78.333 525.596,81.439C525.699,81.529 525.81,81.606 525.914,81.694C529.431,84.63 533.877,86 539.553,86C549.304,86 555.613,80.076 561.158,67.082L563.743,60.966L605.692,60.966L615.84,84.854Z" style="fill:white;fill-rule:nonzero;"/>
    </g>
</svg>
