<svg width="14" height="21" viewBox="0 0 14 21" fill="none" xmlns="http://www.w3.org/2000/svg">
<path d="M4.03003 11.3137V13.9084" stroke="#D30000" stroke-opacity="0.5" stroke-miterlimit="10" stroke-linecap="square"/>
<path d="M11.4305 10.5453L6.6247 9.58393V5.69188C6.6247 4.97531 6.04392 4.39453 5.32735 4.39453C4.61078 4.39453 4.03 4.97531 4.03 5.69188V11.3137H2.3002C1.82235 11.3137 1.4353 11.7008 1.4353 12.1786V15.6382C1.4353 17.1518 3.59755 18.2597 3.59755 19.9627H11.3816L12.7906 12.5648C12.9683 11.6324 12.3616 10.7312 11.4305 10.5453Z" stroke="#D30000" stroke-opacity="0.5" stroke-miterlimit="10" stroke-linecap="square"/>
<path d="M1.8674 7.85401C1.32467 7.13138 1.00293 6.23275 1.00293 5.25931C1.00293 2.87089 2.93901 0.934814 5.32742 0.934814C7.71584 0.934814 9.65192 2.87089 9.65192 5.25931C9.65192 6.23319 9.33018 7.13138 8.78702 7.85444" stroke="#D30000" stroke-opacity="0.5" stroke-miterlimit="10"/>
</svg>
