<svg width="22" height="35" viewBox="0 0 22 35" fill="none" xmlns="http://www.w3.org/2000/svg">
<path d="M6.23743 18.9282V23.3669" stroke="white" stroke-opacity="0.5" stroke-miterlimit="10" stroke-linecap="square"/>
<path d="M18.8974 17.6135L10.6761 15.969V9.31092C10.6761 8.08509 9.68259 7.09155 8.45676 7.09155C7.23093 7.09155 6.2374 8.08509 6.2374 9.31092V18.9282H3.27825C2.46079 18.9282 1.79868 19.5903 1.79868 20.4077V26.326C1.79868 28.9153 5.49761 30.8106 5.49761 33.7239H18.8138L21.224 21.0684C21.5281 19.4734 20.4901 17.9317 18.8974 17.6135Z" stroke="white" stroke-opacity="0.5" stroke-miterlimit="10" stroke-linecap="square"/>
<path d="M2.53773 13.0098C1.6093 11.7736 1.0589 10.2364 1.0589 8.57109C1.0589 4.48525 4.37093 1.17322 8.45677 1.17322C12.5426 1.17322 15.8546 4.48525 15.8546 8.57109C15.8546 10.2371 15.3042 11.7736 14.3751 13.0106" stroke="white" stroke-opacity="0.5" stroke-miterlimit="10"/>
</svg>
